<svg xmlns="http://www.w3.org/2000/svg" width="35" height="35"><path style="stroke:none;fill-rule:nonzero;fill:#fff;fill-opacity:1" d="M22.398 7.7h3.5a.702.702 0 0 0 .704-.7V2.285a.703.703 0 0 0-.649-.7c-1.113-.077-3.289-.187-4.855-.187C16.8 1.398 14 3.977 14 8.656v4.645H9.102a.702.702 0 0 0-.704.699v4.898c0 .387.317.704.704.704H14v13.296c0 .387.313.704.7.704h4.902a.703.703 0 0 0 .699-.704V19.602h5.054c.356 0 .657-.27.696-.625l.547-4.899a.704.704 0 0 0-.7-.777h-5.597V9.8c0-1.16.937-2.102 2.097-2.102Zm0 0"/></svg>