<svg xmlns="http://www.w3.org/2000/svg" width="35" height="35"><path style="stroke:none;fill-rule:nonzero;fill:#fff;fill-opacity:1" d="M11.2 2.102c-5.02 0-9.098 4.078-9.098 9.097v12.602c0 5.02 4.078 9.097 9.097 9.097h12.602c5.02 0 9.097-4.078 9.097-9.097V11.199c0-5.02-4.078-9.097-9.097-9.097Zm14.698 5.597c.774 0 1.403.63 1.403 1.403a1.401 1.401 0 1 1-1.403-1.403ZM17.5 9.801c4.25 0 7.7 3.449 7.7 7.699s-3.45 7.7-7.7 7.7-7.7-3.45-7.7-7.7 3.45-7.7 7.7-7.7Zm0 1.398a6.31 6.31 0 0 0-6.3 6.301 6.31 6.31 0 0 0 6.3 6.3 6.31 6.31 0 0 0 6.3-6.3 6.31 6.31 0 0 0-6.3-6.3Zm0 0"/></svg>