<svg xmlns="http://www.w3.org/2000/svg" width="35" height="35"><path style="stroke:none;fill-rule:nonzero;fill:#fff;fill-opacity:1" d="M33.367 25.668c-1.308-2.36-4.683-5.191-6.078-6.426a.905.905 0 0 1-.074-1.293c2.66-2.86 4.785-6.14 5.52-8.125.32-.879-.348-1.804-1.29-1.804h-2.738c-.898 0-1.43.324-1.68.84-2.21 4.53-4.105 6.488-5.433 7.636-.742.64-1.903.11-1.903-.867v-6.04c0-.835-.683-1.51-1.527-1.51l-5-.06a.758.758 0 0 0-.61 1.215l.825 1.184c.312.41.48.91.48 1.422l-.004 5.336c0 .93-1.125 1.383-1.793.73-2.261-2.199-4.222-6.691-4.925-8.843a1.532 1.532 0 0 0-1.45-1.043l-2.695-.004c-1.012 0-1.75.957-1.476 1.921C3.98 18.587 9.03 26.81 18.039 27.7c.887.09 1.652-.625 1.652-1.508v-2.804c0-.805.633-1.496 1.442-1.516.031-.004.058-.004.086-.004 2.383 0 5.05 3.469 5.984 5.09.27.469.77.75 1.313.75h3.625c1.058 0 1.738-1.121 1.226-2.039Zm0 0"/></svg>