<svg xmlns="http://www.w3.org/2000/svg" width="35" height="35"><path style="stroke:none;fill-rule:nonzero;fill:#fff;fill-opacity:1" d="M32.668 8.094a12.487 12.487 0 0 1-3.574.98 6.228 6.228 0 0 0 2.734-3.445 12.484 12.484 0 0 1-3.953 1.512 6.214 6.214 0 0 0-4.543-1.965 6.222 6.222 0 0 0-6.223 6.222c0 .489.059.965.16 1.418-5.171-.257-9.753-2.738-12.824-6.504a6.198 6.198 0 0 0-.843 3.13 6.211 6.211 0 0 0 2.77 5.18 6.211 6.211 0 0 1-2.821-.778v.078a6.224 6.224 0 0 0 4.992 6.101 6.26 6.26 0 0 1-1.64.22c-.4 0-.79-.04-1.169-.114a6.229 6.229 0 0 0 5.813 4.324 12.491 12.491 0 0 1-7.73 2.664c-.5 0-.997-.027-1.485-.086a17.608 17.608 0 0 0 9.54 2.793c11.448 0 17.706-9.48 17.706-17.703 0-.27-.008-.539-.02-.809a12.622 12.622 0 0 0 3.11-3.218Zm0 0"/></svg>