<?xml version="1.0" encoding="UTF-8"?>
<svg xmlns="http://www.w3.org/2000/svg" xmlns:xlink="http://www.w3.org/1999/xlink" viewBox="0 0 35 35" width="35px" height="35px">
<g id="surface574419">
<path style=" stroke:none;fill-rule:nonzero;fill:rgb(80.000001%,80.000001%,80.000001%);fill-opacity:1;" d="M 2.101562 5.601562 C 1.59375 5.59375 1.125 5.859375 0.871094 6.292969 C 0.617188 6.730469 0.617188 7.269531 0.871094 7.707031 C 1.125 8.140625 1.59375 8.40625 2.101562 8.398438 L 32.898438 8.398438 C 33.40625 8.40625 33.875 8.140625 34.128906 7.707031 C 34.382812 7.269531 34.382812 6.730469 34.128906 6.292969 C 33.875 5.859375 33.40625 5.59375 32.898438 5.601562 Z M 2.101562 16.101562 C 1.59375 16.09375 1.125 16.359375 0.871094 16.792969 C 0.617188 17.230469 0.617188 17.769531 0.871094 18.207031 C 1.125 18.640625 1.59375 18.90625 2.101562 18.898438 L 32.898438 18.898438 C 33.40625 18.90625 33.875 18.640625 34.128906 18.207031 C 34.382812 17.769531 34.382812 17.230469 34.128906 16.792969 C 33.875 16.359375 33.40625 16.09375 32.898438 16.101562 Z M 2.101562 26.601562 C 1.59375 26.59375 1.125 26.859375 0.871094 27.292969 C 0.617188 27.730469 0.617188 28.269531 0.871094 28.707031 C 1.125 29.140625 1.59375 29.40625 2.101562 29.398438 L 32.898438 29.398438 C 33.40625 29.40625 33.875 29.140625 34.128906 28.707031 C 34.382812 28.269531 34.382812 27.730469 34.128906 27.292969 C 33.875 26.859375 33.40625 26.59375 32.898438 26.601562 Z M 2.101562 26.601562 "/>
</g>
</svg>
