<?xml version="1.0" encoding="UTF-8"?>
<svg xmlns="http://www.w3.org/2000/svg" xmlns:xlink="http://www.w3.org/1999/xlink" viewBox="0 0 35 35" width="35px" height="35px">
<g id="surface2997777">
<path style=" stroke:none;fill-rule:nonzero;fill:white;fill-opacity:1;" d="M 33.367188 25.667969 C 32.058594 23.308594 28.683594 20.476562 27.289062 19.242188 C 26.910156 18.90625 26.867188 18.320312 27.214844 17.949219 C 29.875 15.089844 32 11.808594 32.734375 9.824219 C 33.054688 8.945312 32.386719 8.019531 31.445312 8.019531 L 28.707031 8.019531 C 27.808594 8.019531 27.277344 8.34375 27.027344 8.859375 C 24.816406 13.390625 22.921875 15.347656 21.59375 16.496094 C 20.851562 17.136719 19.691406 16.605469 19.691406 15.628906 C 19.691406 13.746094 19.691406 11.316406 19.691406 9.589844 C 19.691406 8.753906 19.007812 8.078125 18.164062 8.078125 L 13.164062 8.019531 C 12.535156 8.019531 12.175781 8.734375 12.554688 9.234375 L 13.378906 10.417969 C 13.691406 10.828125 13.859375 11.328125 13.859375 11.839844 L 13.855469 17.175781 C 13.855469 18.105469 12.730469 18.558594 12.0625 17.90625 C 9.800781 15.707031 7.839844 11.214844 7.136719 9.0625 C 6.929688 8.441406 6.347656 8.023438 5.6875 8.019531 L 2.992188 8.015625 C 1.980469 8.015625 1.242188 8.972656 1.515625 9.9375 C 3.980469 18.585938 9.03125 26.808594 18.039062 27.699219 C 18.925781 27.789062 19.691406 27.074219 19.691406 26.191406 L 19.691406 23.386719 C 19.691406 22.582031 20.324219 21.890625 21.132812 21.871094 C 21.164062 21.867188 21.191406 21.867188 21.21875 21.867188 C 23.601562 21.867188 26.269531 25.335938 27.203125 26.957031 C 27.472656 27.425781 27.972656 27.707031 28.515625 27.707031 L 32.140625 27.707031 C 33.199219 27.707031 33.878906 26.585938 33.367188 25.667969 Z M 33.367188 25.667969 "/>
</g>
</svg>
